<svg width="32" height="20" viewBox="0 0 32 20" fill="none" xmlns="http://www.w3.org/2000/svg">
<g clip-path="url(#clip0_11_315)">
<path d="M32 0H0V20H32V0Z" fill="#00008B"/>
<path d="M7.76033 0V3.54737H0V3H3.64767L0 1.14737V0.610526L4.69133 3H5.89L0 0H2.24233L7.23333 2.53684V0H7.76033Z" fill="white"/>
<path d="M5.89 3H4.69133L0 0.610526V0L5.89 3Z" fill="#FF0000"/>
<path d="M17.133 0L11.243 3H10.0547L15.9447 0H17.133Z" fill="#FF0000"/>
<path d="M7.08867 5.72632L1.19867 8.72632H0L5.89 5.72632H7.08867Z" fill="#FF0000"/>
<path d="M17.1322 8.11604V8.72656L11.2422 5.72656H12.4409L17.1322 8.11604Z" fill="#FF0000"/>
<path d="M17.1324 1.14737L13.4951 3H17.1324V3.54737H9.37207V0H9.9094V2.53684L14.8901 0H15.9441L10.0541 3H11.2424L17.1324 0V1.14737Z" fill="white"/>
<path d="M7.76033 5.17773V8.7251H7.23333V6.18826L2.24233 8.7251H1.19867L7.08867 5.7251H5.89L0 8.7251V7.58826L3.64767 5.7251H0V5.17773H7.76033Z" fill="white"/>
<path d="M17.1334 5.7251H13.4857L17.1334 7.58826V8.11458L12.442 5.7251H11.2434L17.1334 8.7251H14.891L9.91038 6.18826V8.7251H9.37305V5.17773H17.1334V5.7251Z" fill="white"/>
<path d="M17.1327 3.54737V5.17895H9.37233V8.72632H7.76033V5.17895H0V3.54737H7.76033V0H9.37233V3.54737H17.1327Z" fill="#FF0000"/>
<path d="M8.38019 11.9277L8.82452 13.3488L10.1989 12.8225L9.39285 14.0646L10.6535 14.8225L9.19652 14.9488L9.39285 16.4225L8.38019 15.3383L7.37785 16.4225L7.57419 14.9488L6.11719 14.8225L7.37785 14.0646L6.57185 12.8225L7.94619 13.3488L8.38019 11.9277Z" fill="white"/>
<path d="M24.5419 12.0312L24.7589 12.7049L25.4099 12.4523L25.0275 13.0418L25.6269 13.3997L24.9345 13.4628L25.0275 14.1681L24.5522 13.6523L24.0769 14.1681L24.1699 13.4628L23.4775 13.3997L24.0769 13.0418L23.6945 12.4523L24.3455 12.7049L24.5419 12.0312Z" fill="white"/>
<path d="M20.6665 5.7793L20.8835 6.45298L21.5345 6.20035L21.1418 6.80035L21.7411 7.15824L21.0488 7.2214L21.1418 7.92667L20.6665 7.41088L20.1911 7.92667L20.2841 7.2214L19.5918 7.15824L20.1911 6.80035L19.8088 6.20035L20.4598 6.45298L20.6665 5.7793Z" fill="white"/>
<path d="M24.5419 1.50586L24.7589 2.17954L25.4099 1.92691L25.0275 2.51639L25.6269 2.87428L24.9345 2.93744L25.0275 3.6427L24.5522 3.12691L24.0769 3.6427L24.1699 2.93744L23.4775 2.87428L24.0769 2.51639L23.6945 1.92691L24.3455 2.17954L24.5419 1.50586Z" fill="white"/>
<path d="M27.993 4.72632L28.21 5.4L28.861 5.14737L28.4787 5.73684L29.078 6.09474L28.3857 6.1579L28.4787 6.86316L28.0034 6.34737L27.528 6.87369L27.621 6.16842L26.9287 6.10527L27.528 5.74737L27.1457 5.1579L27.7967 5.4L27.993 4.72632Z" fill="white"/>
<path d="M26.0917 7.89478L26.257 8.31583L26.7013 8.34741L26.3603 8.64214L26.4637 9.08425L26.0813 8.84214L25.7093 9.08425L25.8127 8.64214L25.4717 8.34741L25.916 8.31583L26.0917 7.89478Z" fill="white"/>
</g>
<defs>
<clipPath id="clip0_11_315">
<rect width="32" height="20" fill="white"/>
</clipPath>
</defs>
</svg>
