<svg width="32" height="20" viewBox="0 0 32 20" fill="none" xmlns="http://www.w3.org/2000/svg">
<g clip-path="url(#clip0_11_1297)">
<path d="M32 0H0V20H32V0Z" fill="#FF0000"/>
<path d="M24 0H8V20H24V0Z" fill="white"/>
<path d="M16.0007 3.58496L14.9084 5.59443C14.7847 5.81233 14.5628 5.79233 14.3409 5.67022L13.5473 5.26286L14.1361 8.34917C14.2599 8.91338 13.8631 8.91338 13.6668 8.66496L12.2908 7.14917L12.0668 7.92286C12.0476 7.98594 12.0053 8.03968 11.9481 8.07356C11.8909 8.10745 11.8229 8.11902 11.7575 8.10601L10.0135 7.74391L10.4711 9.38707C10.5692 9.75233 10.646 9.90391 10.3719 10.0008L9.75 10.2892L12.7527 12.6955C12.8127 12.7423 12.8575 12.8054 12.8818 12.877C12.906 12.9486 12.9086 13.0256 12.8892 13.0986L12.6268 13.9492C13.6604 13.8313 14.5863 13.6544 15.6209 13.546C15.7127 13.5365 15.8652 13.685 15.8641 13.7892L15.7276 16.9071H16.23L16.1511 13.7965C16.1511 13.6913 16.2887 13.5365 16.3804 13.546C17.4151 13.6513 18.3409 13.8323 19.3745 13.9492L19.1121 13.0986C19.0927 13.0256 19.0953 12.9486 19.1196 12.877C19.1438 12.8054 19.1887 12.7423 19.2487 12.6955L22.2513 10.2892L21.6295 9.9997C21.3564 9.90286 21.4321 9.75233 21.5303 9.38601L21.9879 7.74286L20.2439 8.10496C20.1784 8.11796 20.1105 8.10639 20.0532 8.07251C19.996 8.03863 19.9537 7.98488 19.9345 7.9218L19.7105 7.14812L18.3313 8.67338C18.1351 8.91759 17.7383 8.91759 17.862 8.35759L18.454 5.26286L17.6636 5.66707C17.4417 5.78917 17.2199 5.80917 17.0961 5.59128" fill="#FF0000"/>
</g>
<defs>
<clipPath id="clip0_11_1297">
<rect width="32" height="20" fill="white"/>
</clipPath>
</defs>
</svg>
