<svg width="32" height="20" viewBox="0 0 32 20" fill="none" xmlns="http://www.w3.org/2000/svg">
<g clip-path="url(#clip0_11_1316)">
<path d="M32 0H0V20H32V0Z" fill="#DE2910"/>
<path d="M5.33354 1.57812L7.21408 7.29076L2.29034 3.76023H8.37674L3.45301 7.29076L5.33354 1.57812Z" fill="#FFDE00"/>
<path d="M9.75201 2.11885L11.0843 0.609375L10.9061 2.60411L9.86295 0.88727L11.7296 1.67043L9.75201 2.11885Z" fill="#FFDE00"/>
<path d="M11.744 3.83197L13.5658 2.95091L12.6176 4.72039L12.3306 2.73828L13.7429 4.17512L11.744 3.83197Z" fill="#FFDE00"/>
<path d="M11.7742 6.55117L13.8008 6.47959L12.204 7.71433L12.7608 5.78906L13.4563 7.66906L11.7742 6.55117Z" fill="#FFDE00"/>
<path d="M9.83378 8.29026L11.7325 8.99657L9.77618 9.5271L11.0434 7.96289L10.9485 9.96289L9.83378 8.29026Z" fill="#FFDE00"/>
</g>
<defs>
<clipPath id="clip0_11_1316">
<rect width="32" height="20" fill="white"/>
</clipPath>
</defs>
</svg>
