<svg width="32" height="20" viewBox="0 0 32 20" fill="none" xmlns="http://www.w3.org/2000/svg">
<g clip-path="url(#clip0_11_491)">
<path d="M31.9829 0H0V19.9993H31.9829V0Z" fill="white"/>
<path d="M14.3925 11.9934V19.9993H17.5904V11.9934H31.9829V7.99528H17.5904V0H14.3925V7.99528H0V11.9934H14.3925Z" fill="#CF142B"/>
<path d="M18.6571 6.47412V0H29.0134L18.6571 6.47412Z" fill="#00247D"/>
<path d="M18.6572 13.5244V19.9985H29.0135L18.6572 13.5244Z" fill="#00247D"/>
<path d="M13.3249 13.5244V19.9985H2.96973L13.3249 13.5244Z" fill="#00247D"/>
<path d="M13.3249 6.47412V0H2.96973L13.3249 6.47412Z" fill="#00247D"/>
<path d="M0 1.85938V6.66707H7.68959L0 1.85938Z" fill="#00247D"/>
<path d="M31.9828 1.85962V6.66731H24.2943L31.9828 1.85962Z" fill="#00247D"/>
<path d="M31.9828 18.1407V13.333H24.2943L31.9828 18.1407Z" fill="#00247D"/>
<path d="M0 18.1407V13.333H7.68959L0 18.1407Z" fill="#00247D"/>
<path d="M31.983 0H30.207L19.5627 6.66677H21.3387L32.0001 0" fill="#CF142B"/>
<path d="M12.4203 13.333H10.6443L0 19.9987H1.776L12.4373 13.333" fill="#CF142B"/>
<path d="M8.88212 6.67098H10.6581L0 0V1.11797L8.88212 6.67098Z" fill="#CF142B"/>
<path d="M23.0945 13.3291H21.3185L31.9766 20.0001V18.8821L23.0945 13.3291Z" fill="#CF142B"/>
</g>
<defs>
<clipPath id="clip0_11_491">
<rect width="32" height="20" fill="white"/>
</clipPath>
</defs>
</svg>
