<svg width="32" height="20" viewBox="0 0 32 20" fill="none" xmlns="http://www.w3.org/2000/svg">
<g clip-path="url(#clip0_11_1244)">
<path d="M32 0H0V20H32V0Z" fill="#FF9933"/>
<path d="M32 6.66602H0V13.3323H32V6.66602Z" fill="white"/>
<path d="M32 13.334H0V20.0003H32V13.334Z" fill="#128807"/>
<path d="M16 12.8061C17.5712 12.8061 18.8448 11.5492 18.8448 9.99877C18.8448 8.44831 17.5712 7.19141 16 7.19141C14.4289 7.19141 13.1552 8.44831 13.1552 9.99877C13.1552 11.5492 14.4289 12.8061 16 12.8061Z" fill="#000088"/>
<path d="M15.9996 12.4545C17.374 12.4545 18.4882 11.3551 18.4882 9.99876C18.4882 8.64246 17.374 7.54297 15.9996 7.54297C14.6253 7.54297 13.5111 8.64246 13.5111 9.99876C13.5111 11.3551 14.6253 12.4545 15.9996 12.4545Z" fill="white"/>
<path d="M16.0001 10.491C16.2753 10.491 16.4983 10.2709 16.4983 9.99939C16.4983 9.7279 16.2753 9.50781 16.0001 9.50781C15.725 9.50781 15.502 9.7279 15.502 9.99939C15.502 10.2709 15.725 10.491 16.0001 10.491Z" fill="#000088"/>
<path d="M18.5924 10.3378C18.6014 10.2703 18.5533 10.2085 18.4849 10.1996C18.4166 10.1907 18.3539 10.2382 18.3449 10.3056C18.3359 10.3731 18.384 10.4349 18.4523 10.4438C18.5207 10.4527 18.5834 10.4052 18.5924 10.3378Z" fill="#000088"/>
<path d="M15.9996 12.457L16.085 10.9834L15.9996 10.2812L15.9143 10.9834L15.9996 12.457Z" fill="#000088"/>
<path d="M18.4154 10.9863C18.4418 10.9235 18.4116 10.8515 18.3479 10.8254C18.2842 10.7994 18.2112 10.8292 18.1848 10.8921C18.1585 10.9549 18.1887 11.027 18.2524 11.053C18.3161 11.079 18.3891 11.0492 18.4154 10.9863Z" fill="#000088"/>
<path d="M15.3599 12.3736L15.8292 10.9715L15.9359 10.2715L15.6692 10.9273L15.3599 12.3736Z" fill="#000088"/>
<path d="M18.0734 11.5698C18.1153 11.5159 18.105 11.4385 18.0503 11.3971C17.9957 11.3557 17.9173 11.3659 17.8754 11.4199C17.8334 11.4738 17.8437 11.5511 17.8984 11.5926C17.9531 11.634 18.0314 11.6238 18.0734 11.5698Z" fill="#000088"/>
<path d="M14.7551 12.1264L15.5732 10.8917L15.8548 10.2422L15.4281 10.8075L14.7551 12.1264Z" fill="#000088"/>
<path d="M17.5907 12.0462C17.6454 12.0048 17.6557 11.9275 17.6137 11.8735C17.5718 11.8196 17.4934 11.8094 17.4387 11.8508C17.3841 11.8922 17.3737 11.9695 17.4157 12.0235C17.4577 12.0775 17.536 12.0876 17.5907 12.0462Z" fill="#000088"/>
<path d="M14.2399 11.7371L15.3599 10.755L15.8026 10.1992L15.2351 10.6319L14.2399 11.7371Z" fill="#000088"/>
<path d="M17.0001 12.3836C17.0638 12.3575 17.094 12.2855 17.0677 12.2226C17.0413 12.1598 16.9683 12.13 16.9046 12.156C16.8409 12.182 16.8107 12.2541 16.8371 12.3169C16.8634 12.3797 16.9364 12.4096 17.0001 12.3836Z" fill="#000088"/>
<path d="M13.8448 11.2298L15.1803 10.5656L15.7531 10.1445L15.096 10.4224L13.8448 11.2298Z" fill="#000088"/>
<path d="M16.3418 12.556C16.4101 12.5471 16.4582 12.4853 16.4492 12.4178C16.4402 12.3504 16.3776 12.3029 16.3092 12.3118C16.2409 12.3207 16.1928 12.3825 16.2018 12.45C16.2108 12.5174 16.2735 12.5649 16.3418 12.556Z" fill="#000088"/>
<path d="M13.5958 10.6315L15.0603 10.3315L15.7248 10.0684L15.0155 10.1736L13.5958 10.6315Z" fill="#000088"/>
<path d="M15.7981 12.453C15.8071 12.3856 15.7589 12.3237 15.6906 12.3148C15.6223 12.306 15.5596 12.3534 15.5506 12.4209C15.5416 12.4883 15.5897 12.5502 15.658 12.559C15.7264 12.5679 15.7891 12.5205 15.7981 12.453Z" fill="#000088"/>
<path d="M13.5111 9.99998L15.0044 10.0842L15.7159 9.99998L15.0044 9.91577L13.5111 9.99998Z" fill="#000088"/>
<path d="M15.1634 12.3164C15.1898 12.2536 15.1596 12.1815 15.0959 12.1555C15.0322 12.1295 14.9592 12.1593 14.9328 12.2222C14.9065 12.285 14.9367 12.357 15.0004 12.3831C15.064 12.4091 15.1371 12.3793 15.1634 12.3164Z" fill="#000088"/>
<path d="M13.5958 9.36719L15.0166 9.83035L15.7259 9.93561L15.0614 9.67245L13.5958 9.36719Z" fill="#000088"/>
<path d="M14.5834 12.0229C14.6254 11.969 14.6151 11.8917 14.5604 11.8503C14.5057 11.8089 14.4274 11.819 14.3854 11.873C14.3435 11.927 14.3538 12.0043 14.4085 12.0457C14.4631 12.0871 14.5415 12.0769 14.5834 12.0229Z" fill="#000088"/>
<path d="M13.8448 8.77148L15.096 9.57885L15.7541 9.85675L15.1813 9.43569L13.8448 8.77148Z" fill="#000088"/>
<path d="M14.1007 11.5931C14.1554 11.5517 14.1657 11.4744 14.1238 11.4204C14.0818 11.3665 14.0035 11.3563 13.9488 11.3977C13.8941 11.4391 13.8838 11.5164 13.9258 11.5704C13.9677 11.6243 14.0461 11.6345 14.1007 11.5931Z" fill="#000088"/>
<path d="M14.2399 8.26172L15.2351 9.36698L15.7983 9.80382L15.3599 9.24382L14.2399 8.26172Z" fill="#000088"/>
<path d="M13.7491 11.0535C13.8128 11.0275 13.8431 10.9554 13.8167 10.8926C13.7903 10.8297 13.7173 10.7999 13.6536 10.8259C13.59 10.8519 13.5597 10.924 13.5861 10.9868C13.6125 11.0497 13.6855 11.0795 13.7491 11.0535Z" fill="#000088"/>
<path d="M14.7551 7.87305L15.4281 9.19094L15.8548 9.7562L15.5732 9.10778L14.7551 7.87305Z" fill="#000088"/>
<path d="M13.5494 10.443C13.6178 10.4341 13.6659 10.3722 13.6569 10.3048C13.6479 10.2374 13.5852 10.1899 13.5169 10.1988C13.4485 10.2076 13.4004 10.2695 13.4094 10.3369C13.4184 10.4044 13.4811 10.4519 13.5494 10.443Z" fill="#000088"/>
<path d="M15.3599 7.62695L15.6639 9.07222L15.9305 9.72801L15.8239 9.02801L15.3599 7.62695Z" fill="#000088"/>
<path d="M13.6343 9.71088C13.6433 9.64354 13.5952 9.58178 13.527 9.57294C13.4587 9.5641 13.3962 9.61152 13.3872 9.67885C13.3782 9.74619 13.4263 9.80795 13.4945 9.81679C13.5628 9.82563 13.6253 9.77821 13.6343 9.71088Z" fill="#000088"/>
<path d="M15.9996 7.54297L15.9143 9.01665L15.9996 9.71876L16.085 9.01665L15.9996 7.54297Z" fill="#000088"/>
<path d="M13.8167 9.10938C13.8431 9.04654 13.8128 8.9745 13.7491 8.94847C13.6855 8.92244 13.6125 8.95228 13.5861 9.01512C13.5597 9.07796 13.59 9.15001 13.6536 9.17604C13.7173 9.20207 13.7903 9.17222 13.8167 9.10938Z" fill="#000088"/>
<path d="M16.6395 7.62695L16.1702 9.02906L16.0635 9.72906L16.3302 9.07327L16.6395 7.62695Z" fill="#000088"/>
<path d="M14.1258 8.57958C14.1678 8.52562 14.1574 8.44831 14.1028 8.4069C14.0481 8.3655 13.9697 8.37567 13.9278 8.42964C13.8858 8.4836 13.8961 8.56091 13.9508 8.60232C14.0055 8.64372 14.0838 8.63355 14.1258 8.57958Z" fill="#000088"/>
<path d="M17.2449 7.87305L16.4267 9.10778L16.1451 9.75726L16.5718 9.19199L17.2449 7.87305Z" fill="#000088"/>
<path d="M14.5614 8.14779C14.6161 8.10638 14.6264 8.02907 14.5845 7.9751C14.5425 7.92114 14.4642 7.91096 14.4095 7.95237C14.3548 7.99378 14.3445 8.07109 14.3865 8.12505C14.4284 8.17901 14.5068 8.18919 14.5614 8.14779Z" fill="#000088"/>
<path d="M17.7602 8.26172L16.6402 9.24382L16.1976 9.79961L16.765 9.36698L17.7602 8.26172Z" fill="#000088"/>
<path d="M15.0949 7.8445C15.1586 7.81847 15.1888 7.74643 15.1625 7.68358C15.1361 7.62074 15.0631 7.5909 14.9994 7.61693C14.9357 7.64296 14.9055 7.71501 14.9319 7.77785C14.9582 7.84069 15.0312 7.87053 15.0949 7.8445Z" fill="#000088"/>
<path d="M18.1563 8.77148L16.8208 9.43569L16.248 9.85675L16.9051 9.57885L18.1563 8.77148Z" fill="#000088"/>
<path d="M15.6906 7.68907C15.7589 7.68019 15.8071 7.61833 15.7981 7.55089C15.7891 7.48346 15.7264 7.43598 15.658 7.44486C15.5897 7.45374 15.5416 7.51561 15.5506 7.58304C15.5596 7.65048 15.6223 7.69795 15.6906 7.68907Z" fill="#000088"/>
<path d="M18.4043 9.36719L16.9397 9.66719L16.2752 9.93035L16.9845 9.82508L18.4043 9.36719Z" fill="#000088"/>
<path d="M16.4482 7.57997C16.4572 7.51253 16.4091 7.45067 16.3408 7.44179C16.2724 7.43291 16.2097 7.48038 16.2007 7.54782C16.1917 7.61525 16.2398 7.67712 16.3082 7.686C16.3765 7.69488 16.4392 7.6474 16.4482 7.57997Z" fill="#000088"/>
<path d="M18.4881 9.99998L16.9947 9.91577L16.2833 9.99998L16.9947 10.0842L18.4881 9.99998Z" fill="#000088"/>
<path d="M17.0667 7.77735C17.0931 7.71451 17.0628 7.64247 16.9991 7.61644C16.9355 7.59041 16.8625 7.62025 16.8361 7.68309C16.8097 7.74593 16.84 7.81798 16.9036 7.84401C16.9673 7.87004 17.0403 7.84019 17.0667 7.77735Z" fill="#000088"/>
<path d="M18.4043 10.6309L16.9835 10.1678L16.2742 10.0625L16.9387 10.3257L18.4043 10.6309Z" fill="#000088"/>
<path d="M17.6137 8.12646C17.6557 8.0725 17.6454 7.99518 17.5907 7.95378C17.536 7.91237 17.4577 7.92255 17.4157 7.97651C17.3737 8.03047 17.3841 8.10779 17.4387 8.14919C17.4934 8.1906 17.5718 8.18042 17.6137 8.12646Z" fill="#000088"/>
<path d="M18.1553 11.2298L16.9041 10.4224L16.246 10.1445L16.8188 10.5656L18.1553 11.2298Z" fill="#000088"/>
<path d="M18.0514 8.60482C18.1061 8.56341 18.1164 8.4861 18.0744 8.43214C18.0325 8.37817 17.9541 8.36799 17.8994 8.4094C17.8447 8.45081 17.8344 8.52812 17.8764 8.58208C17.9183 8.63605 17.9967 8.64622 18.0514 8.60482Z" fill="#000088"/>
<path d="M17.76 11.7374L16.7648 10.6322L16.2016 10.1953L16.6443 10.7511L17.76 11.7374Z" fill="#000088"/>
<path d="M18.3469 9.17262C18.4106 9.14659 18.4408 9.07455 18.4145 9.01171C18.3881 8.94887 18.3151 8.91903 18.2514 8.94506C18.1877 8.97109 18.1575 9.04313 18.1839 9.10597C18.2102 9.16881 18.2832 9.19865 18.3469 9.17262Z" fill="#000088"/>
<path d="M17.2449 12.1273L16.5718 10.8094L16.1451 10.2441L16.4267 10.8936L17.2449 12.1273Z" fill="#000088"/>
<path d="M18.4839 9.80064C18.5523 9.79177 18.6004 9.7299 18.5914 9.66246C18.5824 9.59503 18.5197 9.54756 18.4514 9.55643C18.383 9.56531 18.3349 9.62718 18.3439 9.69461C18.3529 9.76205 18.4156 9.80952 18.4839 9.80064Z" fill="#000088"/>
<path d="M16.6402 12.3725L16.3362 10.9273L16.0696 10.2715L16.1762 10.9715L16.6402 12.3725Z" fill="#000088"/>
</g>
<defs>
<clipPath id="clip0_11_1244">
<rect width="32" height="20.0003" fill="white"/>
</clipPath>
</defs>
</svg>
