<svg width="32" height="20" viewBox="0 0 32 20" fill="none" xmlns="http://www.w3.org/2000/svg">
<g clip-path="url(#clip0_11_1340)">
<path d="M32 0H0V20H32V0Z" fill="white"/>
<path d="M7.86361 1.48407L4.90521 5.86328L7.86332 7.8094L10.8217 3.43018L7.86361 1.48407Z" fill="black"/>
<path d="M8.85043 1.608L5.39917 6.7168L5.76927 6.96028L9.22053 1.85149L8.85043 1.608Z" fill="white"/>
<path d="M9.96134 2.33652L6.51007 7.44531L6.88017 7.6888L10.3314 2.58L9.96134 2.33652Z" fill="white"/>
<path d="M23.9817 12.1804L21.0484 16.5488L23.9992 18.4785L26.9326 14.11L23.9817 12.1804Z" fill="black"/>
<path d="M25.1206 12.3131L21.6694 17.4219L22.0395 17.6654L25.4907 12.5566L25.1206 12.3131Z" fill="white"/>
<path d="M26.2315 13.0436L22.7802 18.1523L23.1503 18.3958L26.6016 13.287L26.2315 13.0436Z" fill="white"/>
<path d="M22.4101 13.9533L22.1633 14.3185L25.8616 16.7516L26.1084 16.3863L22.4101 13.9533Z" fill="white"/>
<path d="M20.4385 12.9207C22.0723 10.5021 21.4101 7.23436 18.9593 5.62198C16.5084 4.0096 13.1971 4.66315 11.5633 7.08172C9.92938 9.5003 10.5916 12.768 13.0425 14.3804C15.4933 15.9928 18.8046 15.3392 20.4385 12.9207Z" fill="#C60C30"/>
<path d="M11.5622 7.07996C11.3679 7.36748 11.2329 7.68996 11.1649 8.02897C11.0969 8.36798 11.0973 8.71689 11.1659 9.05577C11.3045 9.74018 11.713 10.3422 12.3014 10.7294C12.8898 11.1166 13.61 11.2573 14.3036 11.1205C14.9971 10.9837 15.6072 10.5806 15.9995 9.99996C16.3919 9.41927 17.002 9.01619 17.6955 8.87939C18.389 8.74259 19.1092 8.88327 19.6977 9.27048C20.2861 9.6577 20.6945 10.2597 20.8332 10.9441C20.9718 11.6285 20.8292 12.3393 20.4369 12.92C20.0515 13.5019 19.553 14.0028 18.9704 14.3935C18.3877 14.7843 17.7324 15.0573 17.0422 15.1968C16.352 15.3362 15.6407 15.3394 14.9493 15.206C14.2579 15.0726 13.6001 14.8054 13.0139 14.4197C12.4277 14.0341 11.9248 13.5376 11.5342 12.9591C11.1435 12.3805 10.8729 11.7313 10.7379 11.049C10.6029 10.3666 10.6063 9.66467 10.7478 8.98361C10.8892 8.30255 11.166 7.6559 11.5622 7.08101" fill="#003478"/>
<path d="M7.78346 12.2071L4.83264 14.1367L7.76598 18.5051L10.7168 16.5755L7.78346 12.2071Z" fill="black"/>
<path d="M5.76927 13.0417L5.39917 13.2852L8.85043 18.3939L9.22053 18.1505L5.76927 13.0417Z" fill="white"/>
<path d="M6.87815 12.3112L6.50806 12.5547L9.95932 17.6635L10.3294 17.42L6.87815 12.3112Z" fill="white"/>
<path d="M24.1355 1.48528L21.1774 3.4314L24.1358 7.81061L27.0939 5.86449L24.1355 1.48528Z" fill="black"/>
<path d="M22.0395 2.33659L21.6694 2.58008L25.1206 7.68887L25.4907 7.44539L22.0395 2.33659Z" fill="white"/>
<path d="M23.1503 1.60637L22.7802 1.84985L26.2315 6.95865L26.6016 6.71516L23.1503 1.60637Z" fill="white"/>
<path d="M25.8616 3.24855L22.1633 5.68164L22.4101 6.04687L26.1084 3.61378L25.8616 3.24855Z" fill="white"/>
<path d="M24.2574 4.04096L23.5181 4.52734L24.011 5.25692L24.7503 4.77054L24.2574 4.04096Z" fill="black"/>
<path d="M8.48151 14.6829L7.00201 15.6562L7.24874 16.0215L8.72824 15.0481L8.48151 14.6829Z" fill="white"/>
</g>
<defs>
<clipPath id="clip0_11_1340">
<rect width="32" height="20" fill="white"/>
</clipPath>
</defs>
</svg>
