<svg width="32" height="20" viewBox="0 0 32 20" fill="none" xmlns="http://www.w3.org/2000/svg">
<g clip-path="url(#clip0_11_679)">
<path d="M32.002 0H0.00195312V20H32.002V0Z" fill="#00247D"/>
<path d="M7.08462 5.71484L1.29262 8.56748H0.00195312L5.79395 5.71484H7.08462Z" fill="white"/>
<path d="M5.79395 2.86316H4.50329L0.00195312 0.642105V0L5.79395 2.86316Z" fill="white"/>
<path d="M17.3669 0L11.5855 2.86316H10.2842L16.0762 0H17.3669Z" fill="white"/>
<path d="M17.368 7.92537V8.56748L11.5866 5.71484H12.8773L17.368 7.92537Z" fill="white"/>
<path d="M7.82062 5.14648V8.56754H7.23395V5.95701L1.94329 8.56754H1.29262L7.08462 5.71491H5.79395L0.00195312 8.56754V7.60964L3.85262 5.71491H0.00195312V5.14648H7.82062Z" fill="white"/>
<path d="M7.08462 5.71484L1.29262 8.56748H0.00195312L5.79395 5.71484H7.08462Z" fill="#CC142B"/>
<path d="M5.79395 2.86316H4.50329L0.00195312 0.642105V0L5.79395 2.86316Z" fill="#CC142B"/>
<path d="M17.3669 0L11.5855 2.86316H10.2842L16.0762 0H17.3669Z" fill="#CC142B"/>
<path d="M17.368 7.92537V8.56748L11.5866 5.71484H12.8773L17.368 7.92537Z" fill="#CC142B"/>
<path d="M17.3664 5.71491H13.5264L17.3664 7.60964V7.92543L12.8757 5.71491H11.5851L17.3664 8.56754H15.4251L10.1344 5.95701V8.56754H9.5584V5.14648H17.3664V5.71491Z" fill="white"/>
<path d="M17.3664 0.957895L13.5157 2.86316H17.3664V3.43158H9.5584V0H10.1344V2.61053L15.4251 0H16.0757L10.2837 2.86316H11.5851L17.3664 0V0.957895Z" fill="white"/>
<path d="M7.82062 0V3.43158H0.00195312V2.86316H3.85262L0.00195312 0.957895V0.642105L4.50329 2.86316H5.79395L0.00195312 0H1.94329L7.23395 2.61053V0H7.82062Z" fill="white"/>
<path d="M9.55929 3.43158V0H7.82062V3.43158H0.00195312V5.14737H7.82062V8.57895H9.55929V5.14737H17.378V3.43158H9.55929Z" fill="#CC142B"/>
<path d="M26.9677 6.0631L27.629 6.53678L27.373 7.31573L28.045 6.83152L28.7063 7.31573L28.4503 6.53678L29.1223 6.0631H28.301L28.045 5.29468L27.789 6.0631H26.9677Z" fill="white"/>
<path d="M27.3729 6.19905L27.7889 6.49379L27.6289 6.96748L28.0449 6.67274L28.4503 6.96748L28.3009 6.49379L28.7063 6.19905H28.2049L28.0449 5.71484L27.8849 6.19905H27.3729Z" fill="#CC142B"/>
<path d="M23.6592 3.30532L24.4059 3.84217L24.1285 4.70532L24.8752 4.16848L25.6219 4.70532L25.3339 3.84217L26.0805 3.30532H25.1632L24.8752 2.43164L24.5872 3.30532H23.6592Z" fill="white"/>
<path d="M24.0765 3.4317L24.5672 3.7896L24.3752 4.35802L24.8765 4.01065L25.3672 4.35802L25.1752 3.7896L25.6765 3.4317H25.0579L24.8765 2.86328L24.6845 3.4317H24.0765Z" fill="#CC142B"/>
<path d="M19.9697 6.96838L20.7164 7.50522L20.4284 8.37891L21.175 7.84207L21.9217 8.37891L21.6444 7.50522L22.391 6.96838H21.463L21.175 6.10522L20.887 6.96838H19.9697Z" fill="white"/>
<path d="M20.3749 7.10434L20.8656 7.46223L20.6843 8.03065L21.1749 7.67276L21.6656 8.03065L21.4843 7.46223L21.9749 7.10434H21.3669L21.1749 6.52539L20.9829 7.10434H20.3749Z" fill="#CC142B"/>
<path d="M23.5322 12.736L24.3642 13.3255L24.0442 14.2939L24.8762 13.6939L25.7082 14.2939L25.3882 13.3255L26.2202 12.736H25.1855L24.8762 11.7676L24.5562 12.736H23.5322Z" fill="white"/>
<path d="M23.9374 12.8624L24.5134 13.2729L24.3001 13.9466L24.8761 13.5361L25.4521 13.9466L25.2281 13.2729L25.8041 12.8624H25.0894L24.8761 12.1992L24.6521 12.8624H23.9374Z" fill="#CC142B"/>
</g>
<defs>
<clipPath id="clip0_11_679">
<rect width="32" height="20" fill="white" transform="translate(0.00195312)"/>
</clipPath>
</defs>
</svg>
