<svg width="32" height="20" viewBox="0 0 32 20" fill="none" xmlns="http://www.w3.org/2000/svg">
<g clip-path="url(#clip0_11_1023)">
<path d="M32 0.000244141H0V20.0002H32V0.000244141Z" fill="white"/>
<path d="M32 0.000244141H0V1.53919H32V0.000244141Z" fill="#B22234"/>
<path d="M32 3.07837H0V4.61732H32V3.07837Z" fill="#B22234"/>
<path d="M32 6.15259H0V7.69154H32V6.15259Z" fill="#B22234"/>
<path d="M32 9.23083H0V10.7698H32V9.23083Z" fill="#B22234"/>
<path d="M32 12.3088H0V13.8478H32V12.3088Z" fill="#B22234"/>
<path d="M32 15.3831H0V16.922H32V15.3831Z" fill="#B22234"/>
<path d="M32 18.4613H0V20.0003H32V18.4613Z" fill="#B22234"/>
<path d="M12.8 0.000244141H0V10.7697H12.8V0.000244141Z" fill="#3C3B6E"/>
<path d="M0.6008 0.982835L0.905866 1.20178L0.7896 1.55547L1.0936 1.33652L1.39867 1.55547L1.2824 1.20178L1.58747 0.982835H1.21093L1.0936 0.62915L0.977333 0.982835H0.6008Z" fill="white"/>
<path d="M2.72379 0.982835L3.02885 1.20178L2.91259 1.55547L3.21765 1.33652L3.52272 1.55547L3.40539 1.20178L3.71045 0.982835H3.33392L3.21765 0.62915L3.10139 0.982835H2.72379Z" fill="white"/>
<path d="M4.84677 0.982835L5.15184 1.20178L5.0345 1.55547L5.33957 1.33652L5.64464 1.55547L5.52837 1.20178L5.83344 0.982835H5.45584L5.33957 0.62915L5.2233 0.982835H4.84677Z" fill="white"/>
<path d="M6.96774 0.982835L7.27281 1.20178L7.15654 1.55547L7.46161 1.33652L7.76668 1.55547L7.64934 1.20178L7.95441 0.982835H7.57788L7.46161 0.62915L7.34534 0.982835H6.96774Z" fill="white"/>
<path d="M9.09073 0.982835L9.3958 1.20178L9.27846 1.55547L9.58353 1.33652L9.88859 1.55547L9.77233 1.20178L10.0774 0.982835H9.6998L9.58353 0.62915L9.46726 0.982835H9.09073Z" fill="white"/>
<path d="M11.2117 0.982835L11.5168 1.20178L11.4005 1.55547L11.7056 1.33652L12.0096 1.55547L11.8933 1.20178L12.1984 0.982835H11.8218L11.7056 0.62915L11.5882 0.982835H11.2117Z" fill="white"/>
<path d="M1.6633 2.0258L1.9673 2.24475L1.85103 2.59843L2.1561 2.37949L2.46117 2.59843L2.3449 2.24475L2.64997 2.0258H2.27237L2.1561 1.67212L2.03983 2.0258H1.6633Z" fill="white"/>
<path d="M3.78427 2.0258L4.08934 2.24475L3.97307 2.59843L4.27707 2.37949L4.58214 2.59843L4.46587 2.24475L4.77094 2.0258H4.3944L4.27707 1.67212L4.1608 2.0258H3.78427Z" fill="white"/>
<path d="M5.90726 2.0258L6.21126 2.24475L6.09499 2.59843L6.40006 2.37949L6.70512 2.59843L6.58886 2.24475L6.89392 2.0258H6.51632L6.40006 1.67212L6.28379 2.0258H5.90726Z" fill="white"/>
<path d="M8.02823 2.0258L8.3333 2.24475L8.21703 2.59843L8.52103 2.37949L8.8261 2.59843L8.70983 2.24475L9.0149 2.0258H8.63836L8.52103 1.67212L8.40476 2.0258H8.02823Z" fill="white"/>
<path d="M10.1512 2.0258L10.4563 2.24475L10.34 2.59843L10.6451 2.37949L10.9501 2.59843L10.8339 2.24475L11.1379 2.0258H10.7613L10.6451 1.67212L10.5288 2.0258H10.1512Z" fill="white"/>
<path d="M0.6008 3.06682L0.905866 3.28577L0.7896 3.63945L1.0936 3.4205L1.39867 3.63945L1.2824 3.28577L1.58747 3.06682H1.21093L1.0936 2.71313L0.977333 3.06682H0.6008Z" fill="white"/>
<path d="M2.72379 3.06682L3.02885 3.28577L2.91259 3.63945L3.21765 3.4205L3.52272 3.63945L3.40539 3.28577L3.71045 3.06682H3.33392L3.21765 2.71313L3.10139 3.06682H2.72379Z" fill="white"/>
<path d="M4.84677 3.06682L5.15184 3.28577L5.0345 3.63945L5.33957 3.4205L5.64464 3.63945L5.52837 3.28577L5.83344 3.06682H5.45584L5.33957 2.71313L5.2233 3.06682H4.84677Z" fill="white"/>
<path d="M6.96774 3.06682L7.27281 3.28577L7.15654 3.63945L7.46161 3.4205L7.76668 3.63945L7.64934 3.28577L7.95441 3.06682H7.57788L7.46161 2.71313L7.34534 3.06682H6.96774Z" fill="white"/>
<path d="M9.09073 3.06682L9.3958 3.28577L9.27846 3.63945L9.58353 3.4205L9.88859 3.63945L9.77233 3.28577L10.0774 3.06682H9.6998L9.58353 2.71313L9.46726 3.06682H9.09073Z" fill="white"/>
<path d="M11.2117 3.06682L11.5168 3.28577L11.4005 3.63945L11.7056 3.4205L12.0096 3.63945L11.8933 3.28577L12.1984 3.06682H11.8218L11.7056 2.71313L11.5882 3.06682H11.2117Z" fill="white"/>
<path d="M1.68951 4.10759L1.99458 4.32654L1.87831 4.68022L2.18338 4.46127L2.48738 4.68022L2.37111 4.32654L2.67618 4.10759H2.29965L2.18338 3.75391L2.06605 4.10759H1.68951Z" fill="white"/>
<path d="M3.81049 4.10759L4.11449 4.32654L3.99822 4.68022L4.30329 4.46127L4.60835 4.68022L4.49209 4.32654L4.79715 4.10759H4.41955L4.30329 3.75391L4.18702 4.10759H3.81049Z" fill="white"/>
<path d="M5.93347 4.10759L6.23854 4.32654L6.12227 4.68022L6.42627 4.46127L6.73134 4.68022L6.61507 4.32654L6.92014 4.10759H6.54361L6.42627 3.75391L6.31001 4.10759H5.93347Z" fill="white"/>
<path d="M8.05444 4.10759L8.35844 4.32654L8.24218 4.68022L8.54724 4.46127L8.85231 4.68022L8.73604 4.32654L9.04111 4.10759H8.66351L8.54724 3.75391L8.43098 4.10759H8.05444Z" fill="white"/>
<path d="M10.1774 4.10759L10.4825 4.32654L10.3662 4.68022L10.6702 4.46127L10.9753 4.68022L10.859 4.32654L11.1641 4.10759H10.7876L10.6702 3.75391L10.554 4.10759H10.1774Z" fill="white"/>
<path d="M0.633057 5.14885L0.938123 5.3678L0.821857 5.72148L1.12586 5.50253L1.43092 5.72148L1.31466 5.3678L1.61972 5.14885H1.24319L1.12586 4.79517L1.00959 5.14885H0.633057Z" fill="white"/>
<path d="M2.75604 5.14885L3.06004 5.3678L2.94378 5.72148L3.24884 5.50253L3.55391 5.72148L3.43764 5.3678L3.74271 5.14885H3.36511L3.24884 4.79517L3.13258 5.14885H2.75604Z" fill="white"/>
<path d="M4.87701 5.14885L5.18208 5.3678L5.06581 5.72148L5.36981 5.50253L5.67488 5.72148L5.55861 5.3678L5.86368 5.14885H5.48715L5.36981 4.79517L5.25355 5.14885H4.87701Z" fill="white"/>
<path d="M7 5.14885L7.30507 5.3678L7.1888 5.72148L7.49387 5.50253L7.79893 5.72148L7.68267 5.3678L7.98667 5.14885H7.61013L7.49387 4.79517L7.3776 5.14885H7Z" fill="white"/>
<path d="M9.12299 5.14885L9.42805 5.3678L9.31072 5.72148L9.61579 5.50253L9.92085 5.72148L9.80459 5.3678L10.1097 5.14885H9.73312L9.61579 4.79517L9.49952 5.14885H9.12299Z" fill="white"/>
<path d="M11.244 5.14885L11.549 5.3678L11.4328 5.72148L11.7378 5.50253L12.0429 5.72148L11.9266 5.3678L12.2306 5.14885H11.8541L11.7378 4.79517L11.6216 5.14885H11.244Z" fill="white"/>
<path d="M0.653229 7.23283L0.957229 7.45073L0.840962 7.80547L1.14603 7.58652L1.4511 7.80547L1.33483 7.45073L1.6399 7.23283H1.2623L1.14603 6.87915L1.02976 7.23283H0.653229Z" fill="white"/>
<path d="M2.77621 7.23283L3.08128 7.45073L2.96501 7.80547L3.27008 7.58652L3.57515 7.80547L3.45781 7.45073L3.76288 7.23283H3.38635L3.27008 6.87915L3.15275 7.23283H2.77621Z" fill="white"/>
<path d="M4.89719 7.23283L5.20119 7.45073L5.08492 7.80547L5.38999 7.58652L5.69505 7.80547L5.57879 7.45073L5.88385 7.23283H5.50625L5.38999 6.87915L5.27372 7.23283H4.89719Z" fill="white"/>
<path d="M7.02017 7.23283L7.32524 7.45073L7.20897 7.80547L7.51404 7.58652L7.81804 7.80547L7.70177 7.45073L8.00684 7.23283H7.63031L7.51404 6.87915L7.39671 7.23283H7.02017Z" fill="white"/>
<path d="M9.14114 7.23283L9.44621 7.45073L9.32994 7.80547L9.63501 7.58652L9.94008 7.80547L9.82381 7.45073L10.1278 7.23283H9.75128L9.63501 6.87915L9.51874 7.23283H9.14114Z" fill="white"/>
<path d="M11.2641 7.23283L11.5692 7.45073L11.4529 7.80547L11.7569 7.58652L12.062 7.80547L11.9457 7.45073L12.2508 7.23283H11.8742L11.7569 6.87915L11.6406 7.23283H11.2641Z" fill="white"/>
<path d="M0.627014 9.31682L0.932081 9.53577L0.815814 9.88945L1.12088 9.6705L1.42595 9.88945L1.30968 9.53577L1.61368 9.31682H1.23715L1.12088 8.96313L1.00461 9.31682H0.627014Z" fill="white"/>
<path d="M2.75 9.31682L3.05507 9.53577L2.9388 9.88945L3.2428 9.6705L3.54787 9.88945L3.4316 9.53577L3.73667 9.31682H3.36013L3.2428 8.96313L3.12653 9.31682H2.75Z" fill="white"/>
<path d="M4.87097 9.31682L5.17604 9.53577L5.05977 9.88945L5.36484 9.6705L5.66991 9.88945L5.55257 9.53577L5.85764 9.31682H5.48111L5.36484 8.96313L5.24857 9.31682H4.87097Z" fill="white"/>
<path d="M6.99396 9.31682L7.29902 9.53577L7.18169 9.88945L7.48676 9.6705L7.79182 9.88945L7.67556 9.53577L7.98062 9.31682H7.60302L7.48676 8.96313L7.37049 9.31682H6.99396Z" fill="white"/>
<path d="M9.11493 9.31682L9.42 9.53577L9.30373 9.88945L9.6088 9.6705L9.91386 9.88945L9.79653 9.53577L10.1016 9.31682H9.72506L9.6088 8.96313L9.49253 9.31682H9.11493Z" fill="white"/>
<path d="M11.2379 9.31682L11.543 9.53577L11.4256 9.88945L11.7307 9.6705L12.0358 9.88945L11.9195 9.53577L12.2246 9.31682H11.847L11.7307 8.96313L11.6144 9.31682H11.2379Z" fill="white"/>
<path d="M1.69556 6.18987L2.00062 6.40881L1.88436 6.7625L2.18942 6.54355L2.49342 6.7625L2.37716 6.40881L2.68222 6.18987H2.30569L2.18942 5.83618L2.07209 6.18987H1.69556Z" fill="white"/>
<path d="M3.81653 6.18987L4.1216 6.40881L4.00533 6.7625L4.3104 6.54355L4.61546 6.7625L4.4992 6.40881L4.80319 6.18987H4.42666L4.3104 5.83618L4.19413 6.18987H3.81653Z" fill="white"/>
<path d="M5.93951 6.18987L6.24458 6.40881L6.12831 6.7625L6.43231 6.54355L6.73738 6.7625L6.62111 6.40881L6.92618 6.18987H6.54965L6.43231 5.83618L6.31605 6.18987H5.93951Z" fill="white"/>
<path d="M8.06049 6.18987L8.36555 6.40881L8.24929 6.7625L8.55435 6.54355L8.85942 6.7625L8.74315 6.40881L9.04715 6.18987H8.67062L8.55435 5.83618L8.43809 6.18987H8.06049Z" fill="white"/>
<path d="M10.1835 6.18987L10.4885 6.40881L10.3712 6.7625L10.6763 6.54355L10.9813 6.7625L10.8651 6.40881L11.1701 6.18987H10.7936L10.6763 5.83618L10.56 6.18987H10.1835Z" fill="white"/>
<path d="M1.68951 8.27397L1.99458 8.49292L1.87831 8.8466L2.18338 8.62766L2.48738 8.8466L2.37111 8.49292L2.67618 8.27397H2.29965L2.18338 7.92029L2.06605 8.27397H1.68951Z" fill="white"/>
<path d="M3.81049 8.27397L4.11449 8.49292L3.99822 8.8466L4.30329 8.62766L4.60835 8.8466L4.49209 8.49292L4.79715 8.27397H4.41955L4.30329 7.92029L4.18702 8.27397H3.81049Z" fill="white"/>
<path d="M5.93347 8.27397L6.23854 8.49292L6.12227 8.8466L6.42734 8.62766L6.73134 8.8466L6.61507 8.49292L6.92014 8.27397H6.54361L6.42734 7.92029L6.31001 8.27397H5.93347Z" fill="white"/>
<path d="M8.05444 8.27397L8.35844 8.49292L8.24218 8.8466L8.54724 8.62766L8.85231 8.8466L8.73604 8.49292L9.04111 8.27397H8.66351L8.54724 7.92029L8.43098 8.27397H8.05444Z" fill="white"/>
<path d="M10.1774 8.27397L10.4825 8.49292L10.3662 8.8466L10.6702 8.62766L10.9753 8.8466L10.859 8.49292L11.1641 8.27397H10.7876L10.6702 7.92029L10.554 8.27397H10.1774Z" fill="white"/>
</g>
<defs>
<clipPath id="clip0_11_1023">
<rect width="32" height="20" fill="white" transform="translate(0 0.000244141)"/>
</clipPath>
</defs>
</svg>
